<?xml version="1.0" encoding="utf-8"?>
<!-- Generator: Adobe Illustrator 23.0.3, SVG Export Plug-In . SVG Version: 6.00 Build 0)  -->
<svg version="1.1"
	 id="Layer_1" image-rendering="optimizeQuality" text-rendering="geometricPrecision" shape-rendering="geometricPrecision"
	 xmlns="http://www.w3.org/2000/svg" xmlns:xlink="http://www.w3.org/1999/xlink" x="0px" y="0px" viewBox="0 0 841.9 367.3"
	 style="enable-background:new 0 0 841.9 367.3;" xml:space="preserve">
<style type="text/css">
	.st0{fill-rule:evenodd;clip-rule:evenodd;fill:#FF0000;}
	.st1{fill-rule:evenodd;clip-rule:evenodd;}
</style>
<path class="st0" d="M715.3,0.1h126.6L633,210.6H506.4L715.3,0.1z M118.9,210.6H0L148.3,60.8C190,16.2,243.7,0,310.9,0H690
	l-78.7,79.3H306.1c-51.1-0.1-71.3,14.8-99.7,43.4L118.9,210.6z"/>
<path class="st1" d="M669.2,367.2L669.2,367.2l-54.8,0.1c-14.9,0-23.4-11.9-23.7-22.8l-0.1-2.7c-0.3-10.4,6.8-18.4,12.2-21.8
	l54.4-35.2h-62.6v-16.1h56.6c19.6,0,29.6,9.5,29.6,27.3v71.3H669.2z M137.5,266.9h27.6c19.8,0,36,16.2,36,36v28.2
	c0,19.8-16.2,36-36,36h-27.6c-19.8,0-36-16.2-36-36v-28.2C101.5,283,117.7,266.9,137.5,266.9z M141.1,281.7h20.4
	c11.9,0,21.6,9.2,21.6,21v28.9c0,11.9-9.7,21-21.6,21h-20.4c-11.9,0-21.6-9.2-21.6-21v-28.9C119.5,290.9,129.2,281.7,141.1,281.7z
	 M367.2,286.9c1.7-10.8,7.7-17.8,16.9-17.8h25.6c11,0,23.1,11.6,23.1,25.6v72.5h-18.1l0-72.4c0-4.8-5.7-10.2-9.9-10.2h-24.8
	c-6.4,0-12.6,5-12.6,12.6v70h-18.1l0-72.2c0-5.4-5.8-10.3-9.7-10.3h-22.8c-6,0-14.1,5.3-14.1,14.5v68.1h-18.1v-98.6h18.1V285
	c4.5-10.1,12.2-16,20.9-16h20.8C355.2,269,365.6,279.6,367.2,286.9L367.2,286.9z M780.2,262.1v88.1h32v17.1h-86.2v-17.1h34.8v-86.4
	c0-1.8-1.4-3.5-3.4-3.5h-27.3v-16.7h30.7C773.5,243.6,780.2,252,780.2,262.1L780.2,262.1z M216.4,291.5c0-15,10.8-23,21.2-23h32.2
	v17.1h-25.6c-5.8,0-9.7,4.3-9.7,9.3v72.2h-18.1L216.4,291.5z M518.7,367.1h-34.8c-21.2,0-33.3-12.7-33.5-34.9l0,0v-63.6h18.1v63.6h0
	c0.2,10.5,4.1,16.8,15.4,16.8h34.8v-80.4h18.1v98.6L518.7,367.1L518.7,367.1z M89.5,296.2V313H18.4v54.2H0.3V243.5h4.3v0h87.8v18.1
	H18.4v34.6L89.5,296.2z M557.6,243.5h19.3v123.6h-19.3V243.5z M662.5,298l-49.9,32.3c-2.2,1.4-4.8,5.9-4.7,9l0,1.7
	c0.1,3.5,4.6,10,10.7,10h43.9V298z"/>
<path class="st0" d="M250.1,208.6H141.3l69.9-70.1c47.6-47.8,58.6-45.9,138.8-45.6h247.6l-71,71l-184.9-0.2
	c-22.3,0-45.4-0.2-67.2,21.1L250.1,208.6z"/>
</svg>
